<?xml version="1.0" encoding="utf-8"?>
<!-- Generator: Adobe Illustrator 17.0.1, SVG Export Plug-In . SVG Version: 6.00 Build 0)  -->
<!DOCTYPE svg PUBLIC "-//W3C//DTD SVG 1.1//EN" "http://www.w3.org/Graphics/SVG/1.1/DTD/svg11.dtd">
<svg version="1.1" xmlns="http://www.w3.org/2000/svg" xmlns:xlink="http://www.w3.org/1999/xlink" x="0px" y="0px"
	 width="234.707px" height="95.496px" viewBox="0 0 234.707 95.496" enable-background="new 0 0 234.707 95.496"
	 xml:space="preserve">
<symbol  id="FIND_x5F_logo_1_" viewBox="-140.507 -26.713 281.015 61.86">
	<path fill="#00AAE4" d="M140.508-15.41h-28.153v50.557h27.073v-9.272h-16.499V14.628h15.353V5.391h-15.353V-6.173h17.579V-15.41z"
		/>
	<path fill="#007AA4" d="M-112.412,25.874h-16.857v-12.41h14.048V4.227h-14.048V-15.41h-11.238v50.557h28.096V25.874z"/>
	<path fill="#007AA4" d="M-98.364-15.41h-11.238v50.557h11.238V-15.41z"/>
	<path fill="#0079A3" d="M-50.636-15.41h-11.342l-22.929,35.686V-15.41h-10.612v50.557h12.108l19.797-30.778
		c0.905-1.387,1.74-2.762,2.505-4.125h0.139c-0.186,1.175-0.278,3.49-0.278,6.946v27.958h10.612V-15.41z"/>
	<g>
		<path fill="#00AAE4" d="M109.545-15.41H98.281v32.402L84.852-15.41h-9.755l-13.29,32.402V-15.41H50.544v50.557h15.08l14.42-36.041
			l14.468,36.041h15.033V-15.41z"/>
	</g>
	<path fill="#00AAE4" d="M41.295,28.235c-4.295,4.554-9.922,6.831-16.879,6.831c-7.366,0-13.282-2.379-17.747-7.136
		c-4.465-4.758-6.697-10.988-6.697-18.69c0-0.75,0.036-1.513,0.092-2.281l5.527-5.527v5.619H8.4v-8.429l13.953-13.953
		c0.42,0,0.846,0.001,1.28,0.001c7.162,0,12.97,2.345,17.424,7.034c4.453,4.69,6.68,10.863,6.68,18.52
		C47.737,17.678,45.59,23.682,41.295,28.235z M32.846-1.754c-2.221-2.73-5.224-4.095-9.009-4.095c-3.672,0-6.641,1.404-8.907,4.214
		c-2.267,2.809-3.4,6.627-3.4,11.452c0,4.757,1.133,8.58,3.4,11.469c2.266,2.889,5.326,4.333,9.179,4.333
		c3.74,0,6.686-1.405,8.839-4.214c2.153-2.809,3.23-6.74,3.23-11.792C36.178,4.765,35.068,0.976,32.846-1.754z"/>
	<path fill="#007AA4" d="M-2.834,10.503c0,16.429-9.001,24.644-27.003,24.644h-17.955V-15.41h17.955c0.607,0,1.177,0,1.729,0.001
		L-2.845,9.853C-2.842,10.07-2.834,10.284-2.834,10.503z M-19.074-1.731c-2.816-2.962-6.698-4.442-11.646-4.442h-5.655v32.048h5.584
		c5.042,0,8.96-1.381,11.752-4.143c2.792-2.762,4.188-6.552,4.188-11.37C-14.851,5.261-16.259,1.23-19.074-1.731z"/>
	<polygon fill="#0090B0" points="8.261,-20.058 -0.028,-12.366 -0.028,-23.675 2.51,-21.531 4.761,-26.713 5.368,-26.447 
		5.368,-26.447 7.231,-25.635 4.963,-20.46 	"/>
</symbol>
<g id="Layer_10">
</g>
<g id="Layer_11">
</g>
<g id="Main">
	<g id="Arrow_4_">
	</g>
	<g id="Arrow_1_">
	</g>
	<g id="Arrow">
	</g>
	<g id="Arrow_3_">
	</g>
	<g id="Search_x5F_block_x5F_wt">
	</g>
	<g id="FD_x5F_HELP">
	</g>
	<g id="FD_x5F_LOGIN">
	</g>
	<g id="FIND_x5F_logo">
	</g>
	<g id="Arrow_5_">
	</g>
	<g id="Arrow_7_">
	</g>
	<g id="New_Symbol">
	</g>
	
		<use xlink:href="#FIND_x5F_logo_1_"  width="281.015" height="61.86" id="XMLID_132_" x="-140.507" y="-26.713" transform="matrix(0.8352 0 0 -0.8352 117.3533 29.3548)" overflow="visible"/>
	<g>
		<g>
			<path fill="#939393" d="M51.869,84.011v3.164h3.07v0.709h-3.07v3.814H51.09v-8.402h4.096v0.715H51.869z"/>
			<path fill="#939393" d="M60.468,91.699h-0.779v-8.402h0.779V91.699z"/>
			<path fill="#939393" d="M71.287,91.699l-4.664-6.744c-0.059-0.086-0.116-0.174-0.173-0.264s-0.103-0.178-0.138-0.264h-0.029
				c0.008,0.07,0.015,0.168,0.021,0.293s0.009,0.281,0.009,0.469v6.51h-0.779v-8.402h0.861l4.588,6.662
				c0.07,0.105,0.134,0.204,0.19,0.296s0.108,0.177,0.155,0.255h0.029c-0.016-0.129-0.027-0.273-0.035-0.434
				s-0.012-0.338-0.012-0.533v-6.246h0.785v8.402H71.287z"/>
			<path fill="#939393" d="M77.156,91.699v-8.402h2.209c1.438,0,2.523,0.345,3.258,1.034s1.102,1.708,1.102,3.056
				c0,0.648-0.103,1.238-0.308,1.77s-0.501,0.985-0.888,1.362s-0.855,0.668-1.406,0.873s-1.172,0.308-1.863,0.308H77.156z
				 M77.935,84.011v6.979h1.289c0.578,0,1.095-0.078,1.55-0.234s0.841-0.386,1.157-0.688s0.558-0.677,0.724-1.122
				s0.249-0.957,0.249-1.535c0-2.266-1.197-3.398-3.592-3.398H77.935z"/>
			<path fill="#939393" d="M96.978,88.552v3.146h-0.779V88.57l-2.637-5.273h0.885l1.922,3.926c0.023,0.047,0.055,0.117,0.094,0.211
				s0.086,0.213,0.141,0.357h0.018c0.023-0.07,0.057-0.152,0.1-0.246s0.096-0.199,0.158-0.316l2.01-3.932h0.832L96.978,88.552z"/>
			<path fill="#939393" d="M107.048,91.845c-0.605,0-1.15-0.11-1.635-0.331s-0.896-0.522-1.233-0.905s-0.598-0.833-0.779-1.351
				s-0.272-1.073-0.272-1.667c0-0.656,0.091-1.257,0.272-1.802s0.446-1.012,0.794-1.4s0.773-0.691,1.277-0.908
				s1.078-0.325,1.723-0.325c0.594,0,1.127,0.106,1.6,0.319s0.875,0.508,1.207,0.885s0.587,0.823,0.765,1.339
				s0.267,1.076,0.267,1.682c0,0.637-0.087,1.228-0.261,1.772s-0.43,1.017-0.768,1.415s-0.754,0.711-1.248,0.938
				S107.692,91.845,107.048,91.845z M107.112,83.865c-0.508,0-0.958,0.097-1.351,0.29s-0.724,0.455-0.993,0.785
				s-0.474,0.717-0.612,1.16s-0.21,0.915-0.214,1.415c-0.004,0.477,0.058,0.933,0.185,1.368s0.318,0.82,0.574,1.154
				s0.579,0.601,0.97,0.8s0.848,0.299,1.371,0.299s0.983-0.091,1.38-0.272s0.728-0.434,0.993-0.756s0.466-0.706,0.601-1.151
				s0.202-0.932,0.202-1.459c0-0.492-0.06-0.959-0.179-1.4s-0.305-0.827-0.557-1.157s-0.573-0.592-0.964-0.785
				S107.659,83.865,107.112,83.865z"/>
			<path fill="#939393" d="M121.529,88.324c0,2.348-1.031,3.521-3.094,3.521c-1.965,0-2.947-1.131-2.947-3.393v-5.156h0.779v5.086
				c0,0.922,0.186,1.611,0.557,2.068s0.945,0.686,1.723,0.686c1.469,0,2.203-0.891,2.203-2.672v-5.168h0.779V88.324z"/>
			<path fill="#939393" d="M131.06,91.699l-1.266-2.408c-0.125-0.238-0.246-0.438-0.363-0.598s-0.238-0.288-0.363-0.384
				s-0.259-0.164-0.401-0.205s-0.302-0.062-0.478-0.062h-0.926v3.656h-0.779v-8.402h2.42c0.316,0,0.622,0.047,0.917,0.141
				s0.558,0.232,0.788,0.416s0.415,0.414,0.554,0.691s0.208,0.6,0.208,0.967c0,0.297-0.045,0.57-0.135,0.82
				s-0.218,0.472-0.384,0.665s-0.367,0.357-0.604,0.492s-0.503,0.235-0.8,0.302v0.023c0.113,0.047,0.217,0.107,0.311,0.182
				s0.185,0.164,0.272,0.27s0.175,0.227,0.261,0.363s0.176,0.293,0.27,0.469l1.412,2.602H131.06z M127.263,84.011v3.322h1.395
				c0.281,0,0.539-0.041,0.773-0.123s0.435-0.199,0.601-0.352s0.295-0.336,0.387-0.551s0.138-0.457,0.138-0.727
				c0-0.488-0.157-0.872-0.472-1.151s-0.769-0.419-1.362-0.419H127.263z"/>
			<path fill="#939393" d="M147.812,91.699v-3.932h-4.582v3.932h-0.779v-8.402h0.779v3.768h4.582v-3.768h0.779v8.402H147.812z"/>
			<path fill="#939393" d="M157.073,91.845c-0.605,0-1.15-0.11-1.635-0.331s-0.896-0.522-1.233-0.905s-0.598-0.833-0.779-1.351
				s-0.272-1.073-0.272-1.667c0-0.656,0.091-1.257,0.272-1.802s0.446-1.012,0.794-1.4s0.773-0.691,1.277-0.908
				s1.078-0.325,1.723-0.325c0.594,0,1.127,0.106,1.6,0.319s0.875,0.508,1.207,0.885s0.587,0.823,0.765,1.339
				s0.267,1.076,0.267,1.682c0,0.637-0.087,1.228-0.261,1.772s-0.43,1.017-0.768,1.415s-0.754,0.711-1.248,0.938
				S157.717,91.845,157.073,91.845z M157.137,83.865c-0.508,0-0.958,0.097-1.351,0.29s-0.724,0.455-0.993,0.785
				s-0.474,0.717-0.612,1.16s-0.21,0.915-0.214,1.415c-0.004,0.477,0.058,0.933,0.185,1.368s0.318,0.82,0.574,1.154
				s0.579,0.601,0.97,0.8s0.848,0.299,1.371,0.299s0.983-0.091,1.38-0.272s0.728-0.434,0.993-0.756s0.466-0.706,0.601-1.151
				s0.202-0.932,0.202-1.459c0-0.492-0.06-0.959-0.179-1.4s-0.305-0.827-0.557-1.157s-0.573-0.592-0.964-0.785
				S157.684,83.865,157.137,83.865z"/>
			<path fill="#939393" d="M173.054,91.699v-5.801c0-0.297,0.023-0.775,0.07-1.436h-0.023c-0.055,0.176-0.104,0.328-0.149,0.457
				s-0.087,0.234-0.126,0.316l-2.93,6.463h-0.334l-2.936-6.422c-0.086-0.195-0.174-0.471-0.264-0.826h-0.023
				c0.016,0.18,0.026,0.385,0.032,0.615s0.009,0.486,0.009,0.768v5.865h-0.762v-8.402h0.92l2.854,6.316
				c0.059,0.133,0.116,0.269,0.173,0.407s0.108,0.286,0.155,0.442h0.035c0.055-0.156,0.104-0.299,0.149-0.428
				s0.101-0.268,0.167-0.416l2.877-6.322h0.873v8.402H173.054z"/>
			<path fill="#939393" d="M178.882,91.699v-8.402h4.096v0.715h-3.316v3.082h3.07v0.703h-3.07v3.193h3.504v0.709H178.882z"/>
			<path fill="#D3D3D3" d="M189.56,85.552l1.143,1.494l-0.545,0.369l-0.967-1.588l-0.984,1.588l-0.539-0.369l1.137-1.494
				l-1.67-0.387l0.193-0.615l1.629,0.586l-0.117-1.84h0.68l-0.105,1.84l1.605-0.586l0.199,0.615L189.56,85.552z"/>
		</g>
	</g>
	<g id="Arrow_6_">
	</g>
</g>
<g id="Help" display="none">
</g>
</svg>
