<?xml version="1.0" encoding="utf-8"?>
<!-- Generator: Adobe Illustrator 17.0.1, SVG Export Plug-In . SVG Version: 6.00 Build 0)  -->
<!DOCTYPE svg PUBLIC "-//W3C//DTD SVG 1.1//EN" "http://www.w3.org/Graphics/SVG/1.1/DTD/svg11.dtd">
<svg version="1.1" id="Layer_1" xmlns="http://www.w3.org/2000/svg" xmlns:xlink="http://www.w3.org/1999/xlink" x="0px" y="0px"
	 width="107px" height="107px" viewBox="0 0 107 107" enable-background="new 0 0 107 107" xml:space="preserve">
<g>
	<rect x="13.75" y="80" fill="none" stroke="#EFEFEF" stroke-miterlimit="10" width="26.5" height="13.25"/>
	<rect x="0.5" y="80" fill="none" stroke="#EFEFEF" stroke-miterlimit="10" width="13.25" height="13.25"/>
	<rect x="0.5" y="66.75" fill="none" stroke="#EFEFEF" stroke-miterlimit="10" width="26.5" height="13.25"/>
	<rect x="13.75" y="53.5" fill="none" stroke="#EFEFEF" stroke-miterlimit="10" width="26.5" height="13.25"/>
	<rect x="40.25" y="53.5" fill="none" stroke="#EFEFEF" stroke-miterlimit="10" width="26.5" height="13.25"/>
	<rect x="40.25" y="80" fill="none" stroke="#EFEFEF" stroke-miterlimit="10" width="26.5" height="13.25"/>
	<rect x="0.5" y="53.5" fill="none" stroke="#EFEFEF" stroke-miterlimit="10" width="13.25" height="13.25"/>
	<rect x="27" y="66.75" fill="none" stroke="#EFEFEF" stroke-miterlimit="10" width="26.5" height="13.25"/>
	<rect x="66.75" y="80" fill="none" stroke="#EFEFEF" stroke-miterlimit="10" width="26.5" height="13.25"/>
	<rect x="93.25" y="80" fill="none" stroke="#EFEFEF" stroke-miterlimit="10" width="13.25" height="13.25"/>
	<rect x="53.5" y="66.75" fill="none" stroke="#EFEFEF" stroke-miterlimit="10" width="26.5" height="13.25"/>
	<rect x="66.75" y="53.5" fill="none" stroke="#EFEFEF" stroke-miterlimit="10" width="26.5" height="13.25"/>
	<rect x="93.25" y="53.5" fill="none" stroke="#EFEFEF" stroke-miterlimit="10" width="13.25" height="13.25"/>
	<rect x="80" y="66.75" fill="none" stroke="#EFEFEF" stroke-miterlimit="10" width="26.5" height="13.25"/>
	<rect x="0.5" y="93.25" fill="none" stroke="#EFEFEF" stroke-miterlimit="10" width="26.5" height="13.25"/>
	<rect x="27" y="93.25" fill="none" stroke="#EFEFEF" stroke-miterlimit="10" width="26.5" height="13.25"/>
	<rect x="53.5" y="93.25" fill="none" stroke="#EFEFEF" stroke-miterlimit="10" width="26.5" height="13.25"/>
	<rect x="80" y="93.25" fill="none" stroke="#EFEFEF" stroke-miterlimit="10" width="26.5" height="13.25"/>
	<rect x="0.5" y="40.25" fill="none" stroke="#EFEFEF" stroke-miterlimit="10" width="26.5" height="13.25"/>
	<rect x="13.75" y="27" fill="none" stroke="#EFEFEF" stroke-miterlimit="10" width="26.5" height="13.25"/>
	<rect x="0.5" y="27" fill="none" stroke="#EFEFEF" stroke-miterlimit="10" width="13.25" height="13.25"/>
	<rect x="27" y="40.25" fill="none" stroke="#EFEFEF" stroke-miterlimit="10" width="26.5" height="13.25"/>
	<rect x="0.5" y="13.75" fill="none" stroke="#EFEFEF" stroke-miterlimit="10" width="26.5" height="13.25"/>
	<rect x="27" y="13.75" fill="none" stroke="#EFEFEF" stroke-miterlimit="10" width="26.5" height="13.25"/>
	<rect x="53.5" y="40.25" fill="none" stroke="#EFEFEF" stroke-miterlimit="10" width="26.5" height="13.25"/>
	<rect x="66.75" y="27" fill="none" stroke="#EFEFEF" stroke-miterlimit="10" width="26.5" height="13.25"/>
	<rect x="93.25" y="27" fill="none" stroke="#EFEFEF" stroke-miterlimit="10" width="13.25" height="13.25"/>
	<rect x="13.75" y="0.5" fill="none" stroke="#EFEFEF" stroke-miterlimit="10" width="26.5" height="13.25"/>
	<rect x="0.5" y="0.5" fill="none" stroke="#EFEFEF" stroke-miterlimit="10" width="13.25" height="13.25"/>
	<rect x="66.75" y="0.5" fill="none" stroke="#EFEFEF" stroke-miterlimit="10" width="26.5" height="13.25"/>
	<rect x="93.25" y="0.5" fill="none" stroke="#EFEFEF" stroke-miterlimit="10" width="13.25" height="13.25"/>
	<rect x="80" y="40.25" fill="none" stroke="#EFEFEF" stroke-miterlimit="10" width="26.5" height="13.25"/>
	<rect x="53.5" y="13.75" fill="none" stroke="#EFEFEF" stroke-miterlimit="10" width="26.5" height="13.25"/>
	<rect x="80" y="13.75" fill="none" stroke="#EFEFEF" stroke-miterlimit="10" width="26.5" height="13.25"/>
	<rect x="0.5" y="0.5" fill="none" stroke="#EFEFEF" stroke-miterlimit="10" width="106" height="106"/>
</g>
</svg>
