<?xml version="1.0" encoding="utf-8"?>
<!-- Generator: Adobe Illustrator 17.0.1, SVG Export Plug-In . SVG Version: 6.00 Build 0)  -->
<!DOCTYPE svg PUBLIC "-//W3C//DTD SVG 1.1//EN" "http://www.w3.org/Graphics/SVG/1.1/DTD/svg11.dtd">
<svg version="1.1" xmlns="http://www.w3.org/2000/svg" xmlns:xlink="http://www.w3.org/1999/xlink" x="0px" y="0px"
	 width="40.477px" height="39.255px" viewBox="0 0 40.477 39.255" enable-background="new 0 0 40.477 39.255" xml:space="preserve">
<g id="img">
</g>
<g id="back">
</g>
<g id="text">
</g>
<g id="main">
	<g id="FIND_x5F_logo_2">
	</g>
	<g id="marker_x5F_map_x5F_area">
	</g>
	<g id="Arrow">
	</g>
	<g>
		<path fill="#939393" d="M8.505,0.259C7.923,0.324,7.938,0.771,7.96,1.602c0.022,0.828-0.14,1.573-0.84,1.983
			C6.986,3.654,6.854,3.722,6.725,3.797C6.717,3.8,6.712,3.8,6.704,3.804C5.979,4.181,5.261,3.921,4.571,3.457
			C3.881,2.994,3.51,2.741,3.144,3.198C2.781,3.652,3.028,3.344,2.439,4.079C2.433,4.087,2.429,4.092,2.422,4.1
			C1.832,4.837,2.08,4.529,1.717,4.982C1.351,5.44,1.68,5.746,2.282,6.318c0.597,0.565,1.005,1.203,0.812,1.98
			c-0.048,0.143-0.09,0.289-0.129,0.436c-0.003,0.012-0.01,0.015-0.015,0.029c-0.245,0.779-0.939,1.101-1.753,1.262
			c-0.816,0.16-1.256,0.243-1.191,0.826c0.064,0.577,0.02,0.185,0.124,1.122c0.001,0.009,0.002,0.015,0.004,0.027
			c0.104,0.937,0.06,0.544,0.124,1.121c0.065,0.583,0.513,0.566,1.344,0.546c0.826-0.023,1.57,0.14,1.981,0.838
			c0.068,0.133,0.137,0.267,0.213,0.396c0.003,0.01,0.002,0.015,0.007,0.023c0.376,0.723,0.115,1.443-0.347,2.131
			c-0.462,0.691-0.715,1.061-0.26,1.428c0.457,0.362,0.147,0.116,0.882,0.706c0.006,0.004,0.008,0.007,0.014,0.011
			c0.002,0.002,0.004,0.003,0.006,0.006c0.736,0.588,0.429,0.34,0.884,0.704c0.457,0.365,0.765,0.039,1.335-0.564
			c0.566-0.6,1.207-1.01,1.987-0.81c0.14,0.045,0.281,0.086,0.424,0.124c0.015,0.006,0.019,0.014,0.034,0.018
			c0.777,0.244,1.101,0.939,1.26,1.753c0.163,0.815,0.246,1.254,0.828,1.192c0.578-0.066,0.185-0.021,1.123-0.124
			c0.007,0,0.009-0.001,0.016-0.002c0,0,0.006,0,0.01-0.001c0.937-0.106,0.543-0.064,1.122-0.127
			c0.581-0.066,0.568-0.514,0.545-1.343c-0.023-0.831,0.14-1.578,0.845-1.987l0,0c0.131-0.067,0.259-0.133,0.385-0.206
			c0.009-0.005,0.016-0.002,0.025-0.009c0.724-0.376,1.443-0.114,2.132,0.348c0.691,0.462,1.061,0.714,1.427,0.259
			c0.362-0.455,0.116-0.147,0.706-0.882c0.005-0.005,0.007-0.008,0.012-0.013c0.002-0.003,0.002-0.005,0.005-0.007
			c0.589-0.737,0.341-0.43,0.705-0.883c0.364-0.457,0.038-0.763-0.565-1.336c-0.601-0.568-1.014-1.21-0.809-1.993
			c0.044-0.137,0.084-0.275,0.121-0.415c0.006-0.015,0.014-0.019,0.019-0.038c0.245-0.776,0.939-1.1,1.753-1.26
			c0.815-0.162,1.256-0.245,1.193-0.826c-0.065-0.578-0.022-0.186-0.124-1.123c-0.002-0.006-0.001-0.01-0.002-0.016
			c0-0.004-0.001-0.006-0.002-0.01c-0.105-0.938-0.062-0.544-0.127-1.123c-0.064-0.582-0.512-0.567-1.343-0.544
			c-0.831,0.023-1.578-0.14-1.987-0.847c0,0-0.001,0-0.001-0.001c-0.068-0.129-0.132-0.257-0.205-0.382
			c-0.004-0.009-0.003-0.016-0.009-0.026c-0.375-0.724-0.115-1.443,0.348-2.133c0.461-0.69,0.715-1.06,0.259-1.427
			c-0.455-0.362-0.147-0.116-0.881-0.705c-0.008-0.006-0.011-0.009-0.018-0.014c0-0.002-0.002-0.001-0.003-0.003
			c-0.736-0.589-0.429-0.342-0.883-0.704c-0.457-0.366-0.763-0.039-1.336,0.564c-0.566,0.601-1.208,1.011-1.99,0.808
			c-0.138-0.043-0.279-0.084-0.419-0.121c-0.015-0.006-0.019-0.014-0.035-0.018C12.084,2.706,11.76,2.013,11.6,1.197
			c-0.16-0.815-0.244-1.255-0.826-1.191c-0.584,0.065-0.172,0.019-1.148,0.128C8.69,0.238,9.082,0.196,8.505,0.259z M14.839,10.366
			c0.247,2.224-1.357,4.228-3.581,4.475c-2.224,0.247-4.229-1.356-4.475-3.58c-0.247-2.226,1.356-4.229,3.58-4.475
			C12.589,6.538,14.591,8.14,14.839,10.366z"/>
		<path fill="#939393" d="M22.201,15.334c-0.65,0.248-0.498,0.759-0.228,1.707c0.274,0.944,0.31,1.85-0.372,2.53
			c-0.134,0.119-0.264,0.236-0.39,0.36c-0.009,0.008-0.014,0.008-0.023,0.014c-0.722,0.65-1.625,0.563-2.556,0.238
			c-0.931-0.327-1.433-0.507-1.717,0.127c-0.283,0.631-0.093,0.202-0.548,1.224c-0.005,0.01-0.008,0.017-0.014,0.029
			c-0.458,1.021-0.267,0.593-0.548,1.222c-0.284,0.636,0.184,0.891,1.048,1.368c0.856,0.473,1.515,1.083,1.522,2.034
			c-0.011,0.179-0.016,0.359-0.017,0.539c-0.002,0.014-0.009,0.021-0.009,0.036c-0.049,0.969-0.75,1.546-1.639,1.975
			c-0.889,0.427-1.373,0.656-1.124,1.305c0.246,0.644,0.078,0.206,0.478,1.253c0.003,0.011,0.006,0.018,0.011,0.029
			c0.397,1.048,0.231,0.609,0.477,1.251c0.249,0.652,0.76,0.501,1.708,0.228c0.944-0.272,1.846-0.308,2.528,0.37
			c0.118,0.135,0.235,0.267,0.362,0.393c0.008,0.009,0.007,0.016,0.016,0.025c0.646,0.719,0.562,1.625,0.235,2.553
			c-0.326,0.932-0.505,1.433,0.127,1.718c0.632,0.281,0.204,0.089,1.225,0.549c0.007,0.003,0.011,0.006,0.018,0.009
			c0.003,0.001,0.006,0.002,0.01,0.003c1.021,0.457,0.593,0.264,1.224,0.548c0.634,0.282,0.888-0.185,1.367-1.049
			c0.472-0.857,1.087-1.521,2.043-1.524c0.174,0.011,0.349,0.018,0.523,0.016c0.019,0.002,0.025,0.011,0.045,0.011
			c0.966,0.051,1.546,0.752,1.972,1.639c0.428,0.888,0.656,1.371,1.306,1.125c0.644-0.247,0.207-0.08,1.254-0.479
			c0.007-0.002,0.01-0.003,0.017-0.006c0.005-0.002,0.008-0.002,0.011-0.005c1.046-0.399,0.608-0.235,1.254-0.478
			c0.649-0.247,0.5-0.759,0.225-1.708c-0.275-0.947-0.31-1.855,0.38-2.536l0,0c0.129-0.116,0.258-0.23,0.38-0.351
			c0.009-0.01,0.017-0.008,0.028-0.018c0.72-0.647,1.624-0.561,2.555-0.235c0.93,0.325,1.433,0.505,1.716-0.129
			c0.281-0.63,0.09-0.201,0.551-1.222c0.002-0.007,0.004-0.013,0.007-0.018c0.002-0.005,0.003-0.009,0.005-0.011
			c0.457-1.023,0.264-0.594,0.547-1.225c0.283-0.634-0.183-0.889-1.048-1.367c-0.86-0.474-1.526-1.089-1.525-2.05
			c0.01-0.171,0.016-0.341,0.016-0.513c0.002-0.019,0.01-0.027,0.011-0.048c0.051-0.967,0.751-1.544,1.64-1.971
			c0.886-0.43,1.37-0.657,1.124-1.307c-0.247-0.644-0.081-0.206-0.478-1.254c-0.002-0.007-0.004-0.01-0.007-0.018
			c-0.001-0.004-0.002-0.008-0.005-0.011c-0.4-1.046-0.233-0.607-0.478-1.254c-0.248-0.648-0.759-0.498-1.709-0.224
			c-0.946,0.276-1.857,0.309-2.534-0.38c-0.002-0.001-0.003-0.001-0.003-0.001c-0.115-0.129-0.229-0.256-0.35-0.378
			c-0.009-0.01-0.009-0.018-0.018-0.029c-0.649-0.719-0.563-1.623-0.236-2.555c0.326-0.931,0.505-1.432-0.128-1.717
			c-0.63-0.283-0.204-0.091-1.223-0.55c-0.009-0.002-0.016-0.006-0.025-0.01c0-0.002-0.002-0.002-0.003-0.002
			c-1.023-0.46-0.595-0.265-1.225-0.548c-0.635-0.284-0.89,0.184-1.367,1.047c-0.472,0.859-1.088,1.524-2.049,1.524
			c-0.171-0.011-0.344-0.016-0.518-0.015c-0.018-0.002-0.024-0.011-0.043-0.011c-0.97-0.05-1.548-0.749-1.975-1.639
			c-0.428-0.89-0.656-1.369-1.305-1.124c-0.652,0.249-0.192,0.074-1.282,0.49C22.409,15.255,22.846,15.089,22.201,15.334z
			 M32.496,25.064c0.948,2.484-0.298,5.265-2.782,6.213c-2.482,0.947-5.264-0.299-6.211-2.781c-0.948-2.484,0.298-5.266,2.78-6.214
			C28.768,21.335,31.55,22.58,32.496,25.064z"/>
	</g>
</g>
<g id="ann">
</g>
<g id="logo">
</g>
</svg>
