<?xml version="1.0" encoding="utf-8"?>
<!-- Generator: Adobe Illustrator 17.0.1, SVG Export Plug-In . SVG Version: 6.00 Build 0)  -->
<!DOCTYPE svg PUBLIC "-//W3C//DTD SVG 1.1//EN" "http://www.w3.org/Graphics/SVG/1.1/DTD/svg11.dtd">
<svg version="1.1" xmlns="http://www.w3.org/2000/svg" xmlns:xlink="http://www.w3.org/1999/xlink" x="0px" y="0px"
	 width="58.313px" height="87.628px" viewBox="0 0 58.313 87.628" enable-background="new 0 0 58.313 87.628" xml:space="preserve">
<g id="Layer_3">
</g>
<g id="Layer_2">
</g>
<g id="Layer_5">
</g>
<g id="Layer_7">
</g>
<g id="Layer_6">
</g>
<g id="Layer_8">
</g>
<g id="Layer_9">
	<g id="FIND_x5F_logo_x5F_BW">
		<g id="FIND_x5F_logo">
		</g>
	</g>
	<g opacity="0.9">
		<polygon fill="#282828" points="22.657,35.532 40.422,17.766 22.657,0 20.155,2.502 35.417,17.766 20.155,33.029 		"/>
	</g>
	<g>
		<g>
			<path fill="#4D4D4D" d="M5.292,73.092c-0.509,0.239-1.09,0.359-1.744,0.359c-0.466,0-0.89-0.082-1.27-0.246
				c-0.381-0.164-0.705-0.393-0.974-0.684c-0.269-0.292-0.476-0.639-0.621-1.04c-0.146-0.402-0.219-0.841-0.219-1.316
				c0-0.5,0.077-0.966,0.232-1.396c0.155-0.432,0.377-0.806,0.665-1.123S2,67.079,2.409,66.897c0.409-0.181,0.869-0.271,1.378-0.271
				c0.562,0,1.063,0.086,1.505,0.258v0.653c-0.472-0.236-0.977-0.354-1.514-0.354c-0.427,0-0.806,0.074-1.137,0.222
				c-0.331,0.146-0.61,0.352-0.838,0.614c-0.227,0.262-0.4,0.572-0.52,0.93c-0.12,0.357-0.18,0.747-0.18,1.171
				c0,0.381,0.054,0.738,0.161,1.074s0.266,0.63,0.477,0.882c0.21,0.251,0.472,0.451,0.784,0.598
				c0.313,0.147,0.677,0.222,1.091,0.222c0.635,0,1.193-0.134,1.675-0.4V73.092z"/>
			<path fill="#4D4D4D" d="M10.59,73.336v-6.033H8.629c-0.046,0.371-0.094,0.731-0.143,1.081s-0.097,0.683-0.143,0.997
				S8.253,69.988,8.21,70.26s-0.084,0.515-0.124,0.729c-0.07,0.386-0.146,0.731-0.226,1.035s-0.18,0.56-0.299,0.767
				c-0.12,0.207-0.265,0.364-0.436,0.474c-0.17,0.108-0.383,0.163-0.637,0.163c-0.11,0-0.21-0.007-0.297-0.021
				c-0.088-0.014-0.168-0.033-0.242-0.058v-0.594c0.145,0.077,0.303,0.115,0.475,0.115c0.141,0,0.263-0.046,0.365-0.138
				c0.104-0.093,0.199-0.223,0.288-0.392c0.067-0.129,0.142-0.353,0.224-0.672c0.081-0.319,0.166-0.72,0.255-1.201
				s0.181-1.037,0.276-1.666c0.095-0.629,0.19-1.317,0.285-2.066h3.083v6.6H10.59z"/>
			<path fill="#4D4D4D" d="M12.914,73.336v-6.6h3.217v0.562h-2.605v2.421h2.412v0.552h-2.412v2.509h2.752v0.557H12.914z"/>
			<path fill="#4D4D4D" d="M22.716,75.103v-1.768h-4.929v1.768h-0.589v-2.324h0.524c0.147-0.276,0.289-0.573,0.426-0.891
				s0.267-0.646,0.389-0.987c0.123-0.341,0.236-0.688,0.339-1.045c0.103-0.355,0.191-0.711,0.267-1.067
				c0.075-0.355,0.137-0.707,0.185-1.054c0.047-0.347,0.075-0.68,0.085-0.999h2.973v6.043h0.906v2.324H22.716z M21.772,67.298H19.95
				c-0.012,0.246-0.041,0.517-0.087,0.813s-0.106,0.605-0.18,0.93c-0.074,0.323-0.158,0.653-0.253,0.989
				c-0.096,0.336-0.199,0.666-0.311,0.989c-0.112,0.324-0.229,0.636-0.353,0.935s-0.248,0.574-0.377,0.826h3.382V67.298z"/>
			<path fill="#4D4D4D" d="M26.627,71.472c-0.147,0.338-0.294,0.631-0.439,0.88c-0.146,0.248-0.299,0.454-0.46,0.616
				c-0.161,0.163-0.334,0.284-0.518,0.363c-0.185,0.08-0.387,0.12-0.607,0.12c-0.147,0-0.284-0.013-0.41-0.037
				s-0.237-0.059-0.336-0.102v-0.635c0.117,0.067,0.237,0.12,0.361,0.159c0.124,0.038,0.242,0.058,0.353,0.058
				c0.15,0,0.287-0.029,0.412-0.088c0.124-0.059,0.241-0.146,0.352-0.263c0.11-0.116,0.218-0.261,0.322-0.433
				c0.104-0.171,0.212-0.372,0.322-0.603l-2.209-4.772h0.694l1.615,3.631c0.025,0.053,0.057,0.125,0.095,0.219
				s0.079,0.192,0.122,0.297h0.014c0.034-0.089,0.069-0.176,0.105-0.262c0.037-0.086,0.071-0.164,0.102-0.235l1.523-3.649h0.653
				L26.627,71.472z"/>
			<path fill="#4D4D4D" d="M37.6,69.944c0,0.564-0.073,1.064-0.219,1.5s-0.351,0.802-0.614,1.098s-0.579,0.521-0.946,0.674
				c-0.366,0.154-0.772,0.23-1.217,0.23c-0.457,0-0.867-0.082-1.229-0.246c-0.362-0.164-0.67-0.392-0.923-0.681
				c-0.253-0.29-0.447-0.635-0.582-1.033c-0.136-0.399-0.204-0.833-0.207-1.303h-1.501v3.152h-0.611v-6.6h0.611v2.891h1.523
				c0.04-0.448,0.137-0.857,0.29-1.227c0.153-0.37,0.359-0.686,0.617-0.948c0.257-0.263,0.564-0.466,0.922-0.609
				c0.357-0.145,0.759-0.217,1.204-0.217c0.438,0,0.835,0.081,1.189,0.244c0.354,0.162,0.656,0.391,0.906,0.684
				s0.443,0.643,0.58,1.049S37.6,69.456,37.6,69.944z M36.96,70.036c0-0.466-0.055-0.877-0.164-1.233
				c-0.108-0.355-0.263-0.653-0.462-0.893s-0.441-0.42-0.725-0.543c-0.284-0.123-0.601-0.185-0.951-0.185
				c-0.35,0-0.669,0.066-0.959,0.198s-0.538,0.321-0.746,0.568c-0.207,0.247-0.367,0.547-0.48,0.899
				c-0.113,0.354-0.17,0.749-0.17,1.188c0,0.445,0.053,0.845,0.158,1.199c0.106,0.354,0.258,0.654,0.456,0.899
				c0.197,0.245,0.438,0.434,0.72,0.563c0.282,0.131,0.602,0.196,0.957,0.196c0.359,0,0.685-0.063,0.977-0.187
				c0.291-0.124,0.539-0.308,0.745-0.55c0.205-0.243,0.364-0.542,0.477-0.897C36.903,70.904,36.96,70.496,36.96,70.036z"/>
			<path fill="#4D4D4D" d="M46.044,75.103v-1.768H38.92v-6.6h0.611v6.043h2.494v-6.043h0.617v6.043h2.499v-6.043h0.616v6.043h0.865
				v2.324H46.044z"/>
			<path fill="#4D4D4D" d="M52.012,73.336l-0.727-1.951h-2.83l-0.709,1.951h-0.681l2.513-6.6h0.616l2.499,6.6H52.012z
				 M50.001,67.892c-0.021-0.059-0.044-0.126-0.066-0.202c-0.023-0.077-0.042-0.164-0.058-0.263h-0.019
				c-0.019,0.099-0.039,0.186-0.063,0.263c-0.022,0.076-0.045,0.144-0.066,0.202l-1.067,2.937h2.416L50.001,67.892z"/>
			<path fill="#4D4D4D" d="M53.145,73.336l1.109-2.043c0.073-0.139,0.145-0.261,0.212-0.368s0.136-0.203,0.205-0.286
				c0.068-0.082,0.141-0.153,0.216-0.211c0.075-0.059,0.155-0.106,0.241-0.143v-0.019c-0.232-0.053-0.442-0.132-0.628-0.237
				s-0.344-0.234-0.474-0.387c-0.131-0.151-0.231-0.326-0.302-0.522s-0.105-0.411-0.105-0.644c0-0.289,0.054-0.542,0.163-0.76
				c0.108-0.218,0.254-0.398,0.435-0.543c0.182-0.145,0.388-0.253,0.619-0.327c0.231-0.073,0.472-0.11,0.721-0.11h1.9v6.6h-0.612
				v-2.872h-0.727c-0.139,0-0.264,0.017-0.375,0.049c-0.112,0.032-0.218,0.086-0.315,0.161c-0.099,0.075-0.193,0.176-0.285,0.301
				c-0.093,0.126-0.188,0.283-0.286,0.47l-0.994,1.892H53.145z M55.699,67.298c-0.467,0-0.823,0.11-1.07,0.329
				c-0.247,0.22-0.37,0.521-0.37,0.904c0,0.212,0.036,0.402,0.108,0.57c0.071,0.169,0.173,0.313,0.304,0.433
				c0.13,0.12,0.287,0.212,0.472,0.276c0.184,0.064,0.386,0.097,0.607,0.097h1.095v-2.609H55.699z"/>
			<path fill="#4D4D4D" d="M11.526,84.645l-2.684-3.088C8.77,81.469,8.722,81.405,8.7,81.369H8.682v3.276H8.07v-6.6h0.611v3.106H8.7
				c0.021-0.033,0.045-0.065,0.069-0.097c0.024-0.03,0.051-0.063,0.078-0.097l2.568-2.913h0.777L9.331,81.23l3.051,3.415H11.526z"/>
			<path fill="#4D4D4D" d="M13.284,84.645v-6.6h1.804c0.272,0,0.52,0.037,0.738,0.11c0.22,0.074,0.406,0.178,0.562,0.311
				c0.155,0.134,0.274,0.294,0.356,0.481c0.083,0.188,0.125,0.393,0.125,0.616c0,0.19-0.026,0.368-0.079,0.534
				c-0.052,0.166-0.127,0.316-0.225,0.453c-0.099,0.137-0.219,0.255-0.361,0.354s-0.305,0.179-0.486,0.237v0.019
				c0.222,0.021,0.422,0.075,0.604,0.161c0.181,0.086,0.336,0.197,0.465,0.336c0.129,0.138,0.229,0.3,0.299,0.485
				s0.105,0.389,0.105,0.609c0,0.279-0.05,0.535-0.151,0.767s-0.243,0.431-0.426,0.598c-0.183,0.168-0.399,0.297-0.651,0.39
				c-0.251,0.092-0.529,0.138-0.833,0.138H13.284z M13.896,78.607v2.343h0.856c0.224,0,0.426-0.029,0.607-0.088
				c0.181-0.058,0.336-0.143,0.465-0.253s0.228-0.244,0.297-0.4c0.068-0.156,0.104-0.333,0.104-0.529
				c0-0.715-0.445-1.072-1.335-1.072H13.896z M13.896,81.502v2.587h1.137c0.488,0,0.863-0.114,1.125-0.343
				c0.263-0.229,0.394-0.554,0.394-0.974c0-0.847-0.575-1.271-1.726-1.271H13.896z"/>
			<path fill="#4D4D4D" d="M22.823,84.645l-0.727-1.951h-2.83l-0.709,1.951h-0.681l2.513-6.6h0.616l2.499,6.6H22.823z
				 M20.813,79.201c-0.021-0.059-0.044-0.126-0.066-0.202c-0.023-0.077-0.042-0.164-0.058-0.263H20.67
				c-0.019,0.099-0.039,0.186-0.063,0.263c-0.022,0.076-0.045,0.144-0.066,0.202l-1.067,2.937h2.416L20.813,79.201z"/>
			<path fill="#4D4D4D" d="M25.157,82.077v2.568h-0.611v-6.6h1.702c0.347,0,0.653,0.043,0.921,0.129
				c0.267,0.086,0.492,0.21,0.676,0.373c0.185,0.162,0.324,0.362,0.419,0.599c0.096,0.235,0.143,0.506,0.143,0.81
				c0,0.307-0.054,0.59-0.161,0.849c-0.107,0.26-0.261,0.483-0.462,0.672c-0.201,0.189-0.446,0.336-0.734,0.442
				c-0.288,0.105-0.615,0.158-0.98,0.158H25.157z M25.157,78.607v2.908h0.875c0.567,0,0.998-0.132,1.293-0.396
				c0.294-0.264,0.441-0.637,0.441-1.118c0-0.93-0.543-1.395-1.629-1.395H25.157z"/>
			<path fill="#4D4D4D" d="M31.633,78.607v6.038h-0.612v-6.038h-1.9v-0.562h4.418v0.562H31.633z"/>
			<path fill="#4D4D4D" d="M39.161,84.645V79.68c0-0.15,0.002-0.29,0.007-0.421s0.012-0.238,0.021-0.324h-0.022
				c-0.027,0.064-0.065,0.136-0.113,0.214c-0.047,0.078-0.09,0.145-0.126,0.2l-3.663,5.297h-0.64v-6.6h0.611v4.906
				c0,0.162-0.002,0.31-0.007,0.441c-0.004,0.132-0.012,0.238-0.021,0.317h0.019c0.033-0.061,0.075-0.131,0.124-0.209
				s0.099-0.152,0.147-0.224l3.608-5.232h0.672v6.6H39.161z"/>
			<path fill="#4D4D4D" d="M42.106,82.077v2.568h-0.611v-6.6h1.702c0.347,0,0.653,0.043,0.921,0.129
				c0.267,0.086,0.492,0.21,0.676,0.373c0.185,0.162,0.324,0.362,0.419,0.599c0.096,0.235,0.143,0.506,0.143,0.81
				c0,0.307-0.054,0.59-0.161,0.849c-0.107,0.26-0.261,0.483-0.462,0.672c-0.201,0.189-0.446,0.336-0.734,0.442
				c-0.288,0.105-0.615,0.158-0.98,0.158H42.106z M42.106,78.607v2.908h0.875c0.567,0,0.998-0.132,1.293-0.396
				c0.294-0.264,0.441-0.637,0.441-1.118c0-0.93-0.543-1.395-1.629-1.395H42.106z"/>
			<path fill="#4D4D4D" d="M50.233,84.645l-0.727-1.951h-2.83l-0.709,1.951h-0.681l2.513-6.6h0.616l2.499,6.6H50.233z
				 M48.223,79.201c-0.021-0.059-0.044-0.126-0.066-0.202c-0.023-0.077-0.042-0.164-0.058-0.263H48.08
				c-0.019,0.099-0.039,0.186-0.063,0.263c-0.022,0.076-0.045,0.144-0.066,0.202l-1.067,2.937H49.3L48.223,79.201z"/>
		</g>
	</g>
</g>
<g id="Layer_11">
</g>
<g id="help" display="none">
</g>
</svg>
