<?xml version="1.0" encoding="utf-8"?>
<!-- Generator: Adobe Illustrator 17.0.1, SVG Export Plug-In . SVG Version: 6.00 Build 0)  -->
<!DOCTYPE svg PUBLIC "-//W3C//DTD SVG 1.1//EN" "http://www.w3.org/Graphics/SVG/1.1/DTD/svg11.dtd">
<svg version="1.1" id="Layer_1" xmlns="http://www.w3.org/2000/svg" xmlns:xlink="http://www.w3.org/1999/xlink" x="0px" y="0px"
	 width="29.374px" height="36.899px" viewBox="0 0 29.374 36.899" enable-background="new 0 0 29.374 36.899" xml:space="preserve">
<g>
	<g>
		<path fill="#EFEFEF" d="M29.374,35.433l-7.501-11.044c2.828-2.546,4.624-6.315,4.624-10.517C26.497,6.223,20.553,0,13.248,0
			S0,6.223,0,13.872s5.943,13.872,13.248,13.872c2.426,0,4.7-0.69,6.658-1.887l7.499,11.042L29.374,35.433z M2.416,13.872
			c0-6.254,4.859-11.342,10.832-11.342c5.973,0,10.832,5.088,10.832,11.342s-4.859,11.342-10.832,11.342
			C7.276,25.214,2.416,20.126,2.416,13.872z"/>
	</g>
</g>
</svg>
