<?xml version="1.0" encoding="utf-8"?>
<!-- Generator: Adobe Illustrator 17.0.1, SVG Export Plug-In . SVG Version: 6.00 Build 0)  -->
<!DOCTYPE svg PUBLIC "-//W3C//DTD SVG 1.1//EN" "http://www.w3.org/Graphics/SVG/1.1/DTD/svg11.dtd">
<svg version="1.1" id="Layer_1" xmlns="http://www.w3.org/2000/svg" xmlns:xlink="http://www.w3.org/1999/xlink" x="0px" y="0px"
	 width="107px" height="107px" viewBox="0 0 107 107" enable-background="new 0 0 107 107" xml:space="preserve">
<g>
	<rect x="0.5" y="0.5" fill="none" stroke="#EFEFEF" stroke-miterlimit="10" width="106" height="106"/>
	<polygon fill="#EFEFEF" points="53.5,30.971 56.265,39.48 65.212,39.48 57.974,44.739 60.738,53.249 53.5,47.99 46.262,53.249 
		49.026,44.739 41.788,39.48 50.735,39.48 	"/>
	<polygon fill="#EFEFEF" points="39.308,53.751 42.073,62.261 51.02,62.261 43.782,67.52 46.546,76.029 39.308,70.77 32.069,76.029 
		34.834,67.52 27.596,62.261 36.543,62.261 	"/>
	<polygon fill="#EFEFEF" points="67.692,53.751 70.457,62.261 79.404,62.261 72.166,67.52 74.931,76.029 67.692,70.77 
		60.454,76.029 63.219,67.52 55.98,62.261 64.927,62.261 	"/>
</g>
</svg>
