<?xml version="1.0" encoding="utf-8"?>
<!-- Generator: Adobe Illustrator 17.0.1, SVG Export Plug-In . SVG Version: 6.00 Build 0)  -->
<!DOCTYPE svg PUBLIC "-//W3C//DTD SVG 1.1//EN" "http://www.w3.org/Graphics/SVG/1.1/DTD/svg11.dtd">
<svg version="1.1" id="Layer_1" xmlns="http://www.w3.org/2000/svg" xmlns:xlink="http://www.w3.org/1999/xlink" x="0px" y="0px"
	 width="107px" height="107px" viewBox="0 0 107 107" enable-background="new 0 0 107 107" xml:space="preserve">
<g>
	<rect x="0.5" y="0.5" fill="none" stroke="#EFEFEF" stroke-miterlimit="10" width="106" height="106"/>
	<polygon fill="#EFEFEF" points="55.001,30.971 57.766,39.48 66.713,39.48 59.474,44.739 62.239,53.249 55.001,47.99 47.762,53.249 
		50.527,44.739 43.289,39.48 52.236,39.48 	"/>
	<polygon fill="#EFEFEF" points="25.668,30.971 28.432,39.48 37.38,39.48 30.141,44.739 32.906,53.249 25.668,47.99 18.429,53.249 
		21.194,44.739 13.955,39.48 22.903,39.48 	"/>
	<polygon fill="#EFEFEF" points="84.668,30.971 87.432,39.48 96.38,39.48 89.141,44.739 91.906,53.249 84.668,47.99 77.429,53.249 
		80.194,44.739 72.955,39.48 81.903,39.48 	"/>
	<polygon fill="#EFEFEF" points="40.809,53.751 43.574,62.261 52.521,62.261 45.282,67.52 48.047,76.029 40.809,70.77 33.57,76.029 
		36.335,67.52 29.097,62.261 38.044,62.261 	"/>
	<polygon fill="#EFEFEF" points="69.193,53.751 71.958,62.261 80.905,62.261 73.667,67.52 76.432,76.029 69.193,70.77 
		61.955,76.029 64.719,67.52 57.481,62.261 66.428,62.261 	"/>
</g>
</svg>
